<?xml version="1.0" encoding="UTF-8"?>
<svg id="Layer_2" data-name="Layer 2" xmlns="http://www.w3.org/2000/svg" viewBox="0 0 138.5 138.5">
  <defs>
    <style>
      .cls-1 {
        fill: #fff;
      }
    </style>
  </defs>
  <g id="Layer_6" data-name="Layer 6">
    <circle cx="69.25" cy="69.25" r="69.25"/>
    <g>
      <path class="cls-1" d="M101.19,37.38h-13.61c-1.62,0-3.1.96-3.76,2.44l-12.02,27h0s-1.28,2.89-1.28,2.89c-1.13,2.55-4.08,3.83-6.66,2.79-2.71-1.09-3.96-4.21-2.78-6.86l1.81-4.06c.47-1.06.47-2.28,0-3.34l-8.2-18.42c-.66-1.48-2.13-2.44-3.76-2.44h-13.61c-2.98,0-4.97,3.06-3.76,5.78l24.39,54.78c.86,1.93,2.77,3.17,4.88,3.17h5.75c2.44,0,4.64-1.43,5.63-3.66l14.4-32.34c1.02-2.3,3.28-3.66,5.64-3.66,1.59,0,3.01-.99,3.65-2.44l7.06-15.85c1.21-2.72-.78-5.78-3.76-5.78Z"/>
      <rect class="cls-1" x="89.02" y="69.18" width="12.34" height="33.35" rx="6.17" ry="6.17" transform="translate(43.15 -31.3) rotate(24)"/>
    </g>
  </g>
</svg>