<?xml version="1.0" encoding="UTF-8"?>
<svg id="Layer_2" data-name="Layer 2" xmlns="http://www.w3.org/2000/svg" viewBox="0 0 842.88 113.6">
  <defs>
    <style>
      .cls-1 {
        fill: none;
      }

      .cls-2 {
        fill: #fff;
      }
    </style>
  </defs>
  <g id="alt_text" data-name="alt text">
    <path class="cls-2" d="M43.11,108.83L.38,8.44C-.94,5.35,1.33,1.92,4.69,1.92h11.04c1.9,0,3.62,1.15,4.34,2.92l27.93,68.44c.75,1.82,1.6,3.9,2.56,6.24.96,2.35,1.87,4.59,2.72,6.72.12.3.26.66.42,1.04.88,2.16,3.93,2.17,4.82,0,.13-.33.26-.63.36-.89.85-2.13,1.76-4.34,2.72-6.64.96-2.29,1.81-4.4,2.56-6.32L92.09,4.84c.72-1.77,2.43-2.92,4.34-2.92h9.93c3.36,0,5.63,3.43,4.31,6.52l-42.58,100.39c-.73,1.73-2.43,2.86-4.31,2.86h-16.36c-1.88,0-3.58-1.12-4.31-2.85Z"/>
    <path class="cls-2" d="M241.92,108.68V4.92c0-1.66,1.34-3,3-3h13.2c1.66,0,3,1.34,3,3v86.8c0,1.66,1.34,3,3,3h56.08c1.66,0,3,1.34,3,3v10.96c0,1.66-1.34,3-3,3h-75.28c-1.66,0-3-1.34-3-3Z"/>
    <path class="cls-2" d="M341.92,108.68V4.92c0-1.66,1.34-3,3-3h91.28c1.66,0,3,1.34,3,3v10.32c0,1.66-1.34,3-3,3h-72.08c-1.66,0-3,1.34-3,3v23.12c0,1.66,1.34,3,3,3h63.92c1.66,0,3,1.34,3,3v10.32c0,1.66-1.34,3-3,3h-63.92c-1.66,0-3,1.34-3,3v25.68c0,1.66,1.34,3,3,3h73.2c1.66,0,3,1.34,3,3v10.32c0,1.66-1.34,3-3,3h-92.4c-1.66,0-3-1.34-3-3Z"/>
    <path class="cls-2" d="M650.24,113.6c-12.8,0-23.9-2.13-33.28-6.4-9.39-4.26-16.59-10.61-21.6-19.04-5.02-8.43-7.52-18.88-7.52-31.36s2.5-23.07,7.52-31.44c5.01-8.37,12.21-14.69,21.6-18.96,9.38-4.26,20.48-6.4,33.28-6.4s24.18,2.13,33.52,6.4c9.33,4.27,16.53,10.59,21.6,18.96,5.06,8.38,7.6,18.86,7.6,31.44s-2.54,22.93-7.6,31.36c-5.07,8.43-12.27,14.77-21.6,19.04-9.33,4.27-20.51,6.4-33.52,6.4ZM650.4,97.28c6.4,0,12.21-.77,17.44-2.32,5.23-1.54,9.71-3.92,13.44-7.12,3.73-3.2,6.64-7.25,8.72-12.16,2.08-4.91,3.12-10.61,3.12-17.12v-3.52c0-6.61-1.04-12.37-3.12-17.28-2.08-4.91-4.99-8.93-8.72-12.08-3.74-3.14-8.21-5.52-13.44-7.12-5.23-1.6-11.04-2.4-17.44-2.4s-12.21.8-17.44,2.4c-5.23,1.6-9.74,3.98-13.52,7.12-3.79,3.15-6.7,7.17-8.72,12.08-2.03,4.91-3.04,10.67-3.04,17.28v3.52c0,6.51,1.01,12.21,3.04,17.12,2.03,4.91,4.93,8.96,8.72,12.16,3.78,3.2,8.29,5.58,13.52,7.12,5.23,1.55,11.04,2.32,17.44,2.32Z"/>
    <path class="cls-2" d="M737.28,108.68V4.92c0-1.66,1.34-3,3-3h14.03c.87,0,1.7.38,2.27,1.03l56.7,65.37c.85.86,1.92,2.06,3.2,3.6,1.28,1.55,2.58,3.09,3.92,4.64,1.33,1.55,2.37,2.91,3.12,4.08h1.12c-.11-1.92-.19-4.05-.24-6.4-.05-2.34-.08-4.48-.08-6.4V4.92c0-1.66,1.34-3,3-3h12.56c1.66,0,3,1.34,3,3v103.76c0,1.66-1.34,3-3,3h-13.39c-.87,0-1.7-.38-2.27-1.04l-57.02-66.16c-1.71-1.92-3.6-4.16-5.68-6.72-2.08-2.56-3.71-4.53-4.88-5.92h-.96c0,1.5.02,3.5.08,6,.05,2.51.08,5.15.08,7.92v62.92c0,1.66-1.34,3-3,3h-12.56c-1.66,0-3-1.34-3-3Z"/>
    <g>
      <path class="cls-1" d="M162.88,71.04h22.72l-13.44-31.04c-.54-1.07-1.2-2.56-2-4.48-.8-1.92-1.63-3.97-2.48-6.16-.85-2.18-1.66-4.26-2.4-6.24-.75-1.97-1.33-3.49-1.76-4.56h-1.12c-.85,2.13-1.84,4.59-2.96,7.36-1.12,2.77-2.21,5.44-3.28,8-1.07,2.56-1.92,4.64-2.56,6.24l-13.44,30.88h22.72"/>
      <path class="cls-2" d="M173.1,1.92h-19.32c-1.18,0-2.25.69-2.74,1.77l-46.59,103.76c-.89,1.98.56,4.23,2.74,4.23h13.24c1.19,0,2.27-.71,2.75-1.8l30.41-69.72c.64-1.6,1.49-3.68,2.56-6.24,1.06-2.56,2.16-5.23,3.28-8,.32-.78.74-1.82,1.17-2.91.85-2.1,3.84-2.07,4.64.05,0,.02.02.04.02.06.74,1.97,1.54,4.05,2.4,6.24.85,2.19,1.68,4.24,2.48,6.16.8,1.92,1.46,3.42,2,4.48l11.62,26.85c.86,1.98-.59,4.19-2.75,4.19h-15.15c-1.66,0-3,1.34-3,3v10.16c0,1.66,1.34,3,3,3h24.8c1.19,0,2.27.71,2.75,1.8l9.15,20.89c.48,1.09,1.56,1.8,2.75,1.8h14.52c2.18,0,3.63-2.25,2.74-4.23L175.84,3.69c-.48-1.08-1.56-1.77-2.74-1.77Z"/>
    </g>
    <path class="cls-2" d="M550.72,66.56c6.5-2.77,11.44-6.93,14.8-12.48,3.36-5.54,5.04-11.84,5.04-18.88,0-6.4-1.25-12.1-3.76-17.12-2.51-5.01-6.27-8.96-11.28-11.84-5.01-2.88-11.36-4.32-19.04-4.32h-68.2c-1.66,0-3,1.34-3,3v103.76c0,1.66,1.34,3,3,3h13.2c1.66,0,3-1.34,3-3V21.24c0-1.66,1.34-3,3-3h45.64c3.84,0,7.09.67,9.76,2,2.67,1.33,4.69,3.28,6.08,5.84,1.38,2.56,2.08,5.65,2.08,9.28,0,5.55-1.58,10-4.72,13.36-3.15,3.36-7.55,5.04-13.2,5.04h-26.67c-1.66,0-3,1.34-3,3v10.16c0,1.66,1.34,3,3,3h23.38c1.14,0,2.18.64,2.69,1.66l19.14,38.43c.51,1.02,1.55,1.66,2.69,1.66h14.67c2.24,0,3.69-2.38,2.67-4.37l-20.95-40.75Z"/>
  </g>
</svg>